<svg xmlns="http://www.w3.org/2000/svg" width="33.652" height="33.652" viewBox="0 0 33.652 33.652">
    <defs>
        <style>
            .cls-1{fill:#1d1d1b}
        </style>
    </defs>
    <path id="Instagram-Icon" d="M1615.814 171.181a12.353 12.353 0 0 0-.782-4.084 8.6 8.6 0 0 0-4.921-4.921 12.346 12.346 0 0 0-4.085-.782c-1.795-.082-2.367-.1-6.937-.1s-5.143.019-6.937.1a12.349 12.349 0 0 0-4.085.782 8.606 8.606 0 0 0-4.921 4.921 12.342 12.342 0 0 0-.782 4.084c-.082 1.795-.1 2.368-.1 6.937s.019 5.143.1 6.937a12.346 12.346 0 0 0 .782 4.084 8.606 8.606 0 0 0 4.921 4.921 12.365 12.365 0 0 0 4.085.782c1.795.082 2.368.1 6.937.1s5.143-.019 6.938-.1a12.362 12.362 0 0 0 4.085-.782 8.6 8.6 0 0 0 4.921-4.921 12.357 12.357 0 0 0 .782-4.084c.082-1.795.1-2.367.1-6.937s-.015-5.142-.101-6.937zm-3.028 13.737a9.3 9.3 0 0 1-.579 3.124 5.566 5.566 0 0 1-3.193 3.193 9.3 9.3 0 0 1-3.124.579c-1.775.081-2.307.1-6.8.1s-5.025-.017-6.8-.1a9.3 9.3 0 0 1-3.124-.579 5.568 5.568 0 0 1-3.194-3.193 9.324 9.324 0 0 1-.58-3.124c-.081-1.774-.1-2.307-.1-6.8s.017-5.025.1-6.8a9.324 9.324 0 0 1 .58-3.124 5.571 5.571 0 0 1 3.194-3.194 9.327 9.327 0 0 1 3.124-.58c1.774-.081 2.307-.1 6.8-.1s5.025.017 6.8.1a9.329 9.329 0 0 1 3.124.58 5.573 5.573 0 0 1 3.193 3.194 9.3 9.3 0 0 1 .579 3.124c.081 1.774.1 2.307.1 6.8s-.02 5.026-.101 6.8zm-13.7-15.44a8.64 8.64 0 1 0 8.641 8.64 8.64 8.64 0 0 0-8.638-8.639zm0 14.249a5.609 5.609 0 1 1 5.609-5.609 5.609 5.609 0 0 1-5.606 5.61zm11-14.591a2.019 2.019 0 1 1-2.019-2.02 2.019 2.019 0 0 1 2.023 2.021z" class="cls-1" transform="translate(-1582.263 -161.293)"/>
</svg>
