<svg xmlns="http://www.w3.org/2000/svg" width="34.223" height="34.224" viewBox="0 0 34.223 34.224">
    <defs>
        <style>
            .cls-1{fill:#1d1d1b}
        </style>
    </defs>
    <path id="Pinterest-icon" d="M1364.324 285.444a17.112 17.112 0 0 0-6.869 32.785 15.039 15.039 0 0 1 .3-3.929c.33-1.391 2.2-9.326 2.2-9.326a6.546 6.546 0 0 1-.548-2.706c0-2.534 1.472-4.429 3.3-4.429a2.291 2.291 0 0 1 2.307 2.568c0 1.564-1 3.905-1.51 6.073a2.647 2.647 0 0 0 2.7 3.3c3.243 0 5.427-4.162 5.427-9.1 0-3.749-2.525-6.556-7.119-6.556a8.1 8.1 0 0 0-8.424 8.193 4.939 4.939 0 0 0 1.129 3.357.825.825 0 0 1 .244.953c-.079.316-.269 1.073-.348 1.373a.588.588 0 0 1-.856.429c-2.391-.975-3.5-3.593-3.5-6.537 0-4.86 4.1-10.69 12.23-10.69 6.531 0 10.834 4.728 10.834 9.8 0 6.712-3.734 11.726-9.235 11.726a4.907 4.907 0 0 1-4.18-2.132s-.994 3.943-1.2 4.7a14.362 14.362 0 0 1-1.723 3.666 17.112 17.112 0 1 0 4.849-33.523z" class="cls-1" transform="translate(-1347.212 -285.444)"/>
</svg>
